<svg xmlns="http://www.w3.org/2000/svg" id="uuid-20b0d604-55f2-459e-9b96-37888954e3a9" viewBox="0 0 191.59 36.54"><g id="uuid-4ddfa34d-cae0-4b56-b93d-38f0167eeb2c"><g><polygon points="24.64 17.21 19.54 17.21 19.54 11.67 17.54 11.67 17.54 17.21 12.45 17.21 12.45 19.18 17.54 19.18 17.54 24.71 19.54 24.71 19.54 19.18 24.64 19.18 24.64 17.21" style="fill:#7e7e7e;"></polygon><polygon points="14.4 26.25 9.83 26.25 9.83 21.29 8.1 21.29 8.1 26.25 3.54 26.25 3.54 27.76 8.1 27.76 8.1 32.72 9.83 32.72 9.83 27.76 14.4 27.76 14.4 26.25" style="fill:#3a3a3a;"></polygon><polygon points="33.54 8.52 28.98 8.52 28.98 3.53 27.25 3.53 27.25 8.52 22.69 8.52 22.69 10.03 27.25 10.03 27.25 14.96 28.98 14.96 28.98 10.03 33.54 10.03 33.54 8.52" style="fill:#848484;"></polygon><polygon points="22.41 31.75 19.31 31.75 19.31 28.29 17.83 28.29 17.83 31.75 14.74 31.75 14.74 33.08 17.83 33.08 17.83 36.54 19.31 36.54 19.31 33.08 22.41 33.08 22.41 31.75" style="fill:#5b5b5b;"></polygon><polygon points="14.4 8.51 9.78 8.51 9.78 3.53 8.16 3.53 8.16 8.51 3.54 8.51 3.54 9.98 8.16 9.98 8.16 14.96 9.78 14.96 9.78 9.98 14.4 9.98 14.4 8.51" style="fill:#959595;"></polygon><polygon points="37.05 17.53 33.95 17.53 33.95 14.07 32.48 14.07 32.48 17.53 29.38 17.53 29.38 18.86 32.48 18.86 32.48 22.32 33.95 22.32 33.95 18.86 37.05 18.86 37.05 17.53" style="fill:#5b5b5b;"></polygon><polygon points="33.54 26.25 28.98 26.25 28.98 21.29 27.25 21.29 27.25 26.25 22.69 26.25 22.69 27.76 27.25 27.76 27.25 32.72 28.98 32.72 28.98 27.76 33.54 27.76 33.54 26.25" style="fill:#1c1c1c; fill-rule:evenodd;"></polygon><polygon points="18.02 0 18.02 3.39 14.96 3.39 14.96 4.42 18.02 4.42 18.02 7.81 19.12 7.81 19.12 4.42 22.19 4.42 22.19 3.39 19.12 3.39 19.12 0 18.02 0" style="fill:#9c9c9c;"></polygon><polygon points="7.23 17.66 4.16 17.66 4.16 14.33 3.07 14.33 3.07 17.66 0 17.66 0 18.73 3.07 18.71 3.07 22.05 4.16 22.05 4.16 18.7 7.23 18.68 7.23 17.66" style="fill:#9c9c9c;"></polygon><g><path d="M98.56,15.34c1.21-.47,2.28-.61,2.96-.61,3.42,0,5.73,2.4,5.73,6.17s-2.43,6.2-6.71,6.2c-1.49,0-2.94-.29-4.47-.81l-.07-17.29h2.56v6.34Zm2.24,9.4c2.39,0,3.76-1.37,3.76-3.81s-1.38-3.84-3.53-3.84c-.94,0-1.82,.32-2.47,.62v6.6c.79,.29,1.53,.43,2.24,.43" style="fill:#1c1c1c; fill-rule:evenodd;"></path><rect x="117.91" y="6.57" width="2.54" height="22.7" style="fill:#1c1c1c;"></rect><path d="M134.44,19.56h5.82c-.07-1.55-.9-2.35-2.38-2.45-1.49-.1-2.94,.86-3.44,2.45m2.87,7.59c-3.9-.38-5.81-3.12-5.7-6.38,.12-3.51,2.39-6.01,5.86-6.01,3.64,0,5.75,2.69,5.57,6.66h-8.76c.21,2.2,1.53,3.24,3.34,3.38,1.5,.12,3.63-.22,4.77-.95v2.42c-1.51,.74-3.09,1.06-5.08,.87" style="fill:#1c1c1c; fill-rule:evenodd;"></path><path d="M180.63,25.15c1.61,0,2.69-.82,2.69-2.65v-7.51h2.56v7.83c0,2.62-2.03,4.21-5.26,4.21s-5.25-1.6-5.25-4.21v-7.83h2.56v7.51c0,1.83,1.09,2.65,2.69,2.65" style="fill:#1c1c1c; fill-rule:evenodd;"></path><path d="M79.13,27.1c-4.28,.01-6.71-2.29-6.71-6.2s2.31-6.17,5.73-6.17c1.15,0,2.11,.26,2.96,.81v-.86h2.56l-.07,11.62c-1.08,.47-2.85,.8-4.47,.81m-.26-2.36c.58,0,1.29-.05,2.19-.28l.05-6.55c-.82-.56-1.61-.83-2.47-.83-2.15,0-3.53,1.44-3.53,3.84s1.37,3.85,3.76,3.81" style="fill:#1c1c1c; fill-rule:evenodd;"></path><path d="M160.06,27.1c-4.28,.01-6.71-2.29-6.71-6.2s2.31-6.17,5.73-6.17c1.15,0,2.11,.26,2.96,.81v-.86h2.56l-.07,11.62c-1.08,.47-2.85,.8-4.47,.81m-.26-2.36c.5,0,1.29-.05,2.19-.28l.05-6.55c-.82-.56-1.61-.83-2.47-.83-2.15,0-3.53,1.44-3.53,3.84s1.37,3.82,3.76,3.81" style="fill:#1c1c1c; fill-rule:evenodd;"></path></g><g><polygon points="53.36 9.82 55.9 9.82 55.9 17.02 62.75 17.02 62.75 19.38 55.9 19.38 55.9 27.19 53.36 27.19 53.36 19.38 46.51 19.38 46.51 17.02 53.36 17.02 53.36 9.82" style="fill:#1c1c1c;"></polygon><path d="M190.1,14.88c.83,0,1.49,.67,1.49,1.52s-.66,1.53-1.5,1.53-1.51-.67-1.51-1.53,.67-1.52,1.51-1.52h0Zm0,.24c-.67,0-1.22,.57-1.22,1.28s.55,1.29,1.22,1.29c.68,0,1.22-.57,1.22-1.28s-.54-1.29-1.22-1.29h0Zm-.29,2.17h-.27v-1.7c.14-.02,.28-.04,.48-.04,.26,0,.43,.05,.53,.13,.1,.08,.15,.19,.15,.35,0,.22-.15,.36-.33,.41h0c.15,.04,.25,.17,.28,.42,.04,.26,.08,.36,.11,.42h-.28c-.04-.05-.08-.21-.11-.43-.04-.22-.15-.3-.37-.3h-.19v.73Zm0-.94h.2c.22,0,.41-.08,.41-.29,0-.15-.11-.3-.41-.3-.09,0-.15,0-.2,.01v.57Z" style="fill:#1c1c1c;"></path></g></g></g></svg>